<svg version="1.0" xmlns="http://www.w3.org/2000/svg"
 width="300.000000pt" height="198.000000pt" viewBox="0 0 300.000000 198.000000"
 preserveAspectRatio="xMidYMid meet">
<metadata>
Created by potrace 1.10, written by Peter Selinger 2001-2011
</metadata>
<g transform="translate(0.000000,198.000000) scale(0.100000,-0.100000)"
fill="#000000" stroke="none">
<path d="M1696 1719 c-111 -26 -159 -89 -149 -196 4 -45 10 -63 20 -63 9 0 11
5 6 13 -4 6 5 4 20 -6 26 -17 27 -17 27 2 0 11 -13 31 -30 44 -16 14 -30 35
-30 46 0 22 32 61 50 61 6 0 10 6 10 13 0 8 10 22 22 33 21 19 21 19 14 -1
-18 -46 -16 -50 77 -111 81 -53 92 -64 95 -92 2 -21 7 -30 14 -26 7 5 9 2 5
-9 -3 -9 0 -18 9 -21 20 -8 8 -26 -17 -26 -16 0 -19 -7 -19 -40 0 -40 18 -60
55 -60 31 0 152 -132 185 -202 34 -72 34 -85 14 -358 -6 -82 -4 -97 10 -109
20 -17 21 -3 4 46 -14 38 -8 49 20 34 31 -17 52 -4 46 27 -4 21 3 38 30 73
l36 46 83 -43 c45 -24 91 -44 102 -44 12 0 16 -3 9 -8 -8 -5 -4 -13 12 -25 13
-10 24 -13 24 -8 0 6 -8 15 -17 21 -10 6 -13 9 -8 7 53 -19 75 -30 75 -36 0
-8 11 -9 104 -14 44 -2 73 1 80 8 6 7 18 10 28 7 24 -6 118 29 118 45 0 14
-58 7 -75 -9 -7 -7 -1 -8 15 -3 14 4 22 4 17 -1 -10 -10 -80 -17 -192 -18
l-90 -1 -116 57 c-65 32 -128 62 -142 67 -21 8 -27 19 -32 58 -19 137 -58 233
-141 341 -27 35 -58 77 -70 92 -12 16 -36 84 -53 152 -40 152 -66 199 -124
227 -46 22 -70 24 -131 10z m110 -36 c19 -12 22 -18 12 -24 -9 -6 -4 -9 14 -9
17 0 31 -8 38 -20 6 -11 8 -20 4 -20 -3 0 -1 -6 5 -13 6 -8 8 -17 4 -20 -3 -4
-1 -7 5 -7 20 0 44 -103 32 -136 -9 -26 -9 -27 4 -10 14 17 15 15 22 -20 3
-22 19 -59 35 -83 16 -25 29 -50 29 -57 0 -7 5 -16 12 -20 7 -4 8 -3 4 4 -4 7
-2 12 5 12 6 0 9 -8 6 -19 -2 -10 0 -25 5 -32 7 -10 8 -9 3 6 -6 18 -5 19 10
4 9 -9 17 -22 19 -30 1 -8 18 -49 38 -91 37 -77 74 -186 66 -194 -3 -2 -11 7
-18 21 -8 14 -19 24 -26 21 -8 -3 -11 0 -8 8 3 8 -2 30 -10 51 -20 47 -20 54
-1 29 10 -12 8 -1 -6 31 -19 46 -40 81 -26 43 17 -43 17 -51 2 -25 -9 15 -13
32 -10 37 7 12 -23 60 -39 60 -13 0 -56 63 -56 82 0 9 -3 9 -9 -1 -7 -11 -11
-4 -17 25 -3 21 -14 54 -23 72 l-17 34 2 -56 c1 -36 -2 -54 -8 -50 -17 11 -39
74 -33 95 9 29 -14 127 -32 138 -9 5 -17 19 -18 32 -1 12 -7 25 -15 27 -9 3
-10 0 -4 -9 6 -12 5 -12 -8 -1 -12 9 -17 10 -20 1 -2 -7 -8 -6 -17 5 -11 13
-9 17 13 27 14 7 26 16 26 21 0 12 -18 10 -22 -3 -2 -5 -21 -13 -44 -16 -35
-4 -40 -3 -40 16 0 12 6 21 14 21 7 0 11 4 8 9 -4 5 0 12 6 15 7 3 0 3 -17 -1
-35 -7 -32 0 10 21 38 20 60 20 91 -1z m319 -783 c3 -5 19 -10 35 -10 25 0 29
-4 27 -22 -3 -28 -19 -48 -32 -40 -5 3 -4 -2 4 -11 12 -15 11 -17 -2 -17 -10
0 -14 -6 -11 -14 3 -8 0 -17 -7 -22 -8 -5 -10 -3 -4 6 6 9 4 12 -6 8 -11 -4
-14 3 -12 38 1 24 -2 55 -7 69 -9 24 2 36 15 15z"/>
<path d="M1310 1701 c0 -5 -21 -29 -47 -54 -45 -44 -46 -46 -44 -103 l2 -58
-30 28 c-24 23 -40 29 -73 29 -49 1 -141 -39 -175 -75 -30 -33 -40 -107 -19
-158 9 -22 15 -44 14 -48 0 -4 1 -14 5 -22 3 -8 8 -22 11 -30 3 -8 4 12 2 45
-3 74 10 129 29 121 9 -3 20 7 29 24 18 37 14 37 -18 5 -14 -14 -33 -25 -43
-25 -12 0 -7 7 16 21 24 14 30 23 22 28 -8 6 0 14 24 25 20 10 34 20 31 23 -7
7 49 43 65 43 6 0 7 -6 2 -12 -10 -17 -13 -38 -4 -38 3 0 17 7 30 16 13 10 26
13 30 7 3 -5 17 -17 31 -26 26 -18 38 -72 13 -63 -7 3 -15 1 -18 -4 -4 -6 6
-10 21 -10 20 0 25 -3 17 -11 -8 -8 -17 -8 -33 1 -12 6 -25 9 -28 5 -3 -3 3
-8 15 -11 12 -3 24 -12 27 -20 7 -18 -4 -18 -30 0 -11 8 -38 16 -60 18 -31 2
-38 7 -36 21 3 14 -2 18 -20 15 -13 -2 -22 -9 -21 -15 2 -7 -3 -10 -11 -7 -8
3 -17 0 -21 -6 -9 -15 32 -53 47 -44 6 4 8 3 4 -4 -13 -22 16 -23 40 -1 22 20
26 21 51 9 16 -8 30 -14 33 -14 3 -1 11 -5 18 -10 7 -4 16 -5 20 -1 4 3 12
-15 18 -42 l12 -48 1 42 c2 76 31 60 31 -17 0 -39 -14 -61 -24 -38 -3 7 -5 4
-5 -7 3 -66 -3 -97 -22 -116 -16 -16 -23 -18 -29 -9 -5 7 -9 -3 -12 -26 -7
-50 -3 -53 17 -15 19 39 35 32 35 -15 0 -22 4 -33 11 -29 6 4 8 9 6 11 -4 4 7
69 27 163 7 30 10 33 30 25 9 -3 17 -16 17 -28 1 -15 3 -16 6 -5 3 14 8 15 28
5 14 -6 25 -15 25 -19 0 -5 5 -5 10 -2 6 3 10 -5 10 -18 0 -14 -7 -28 -16 -31
-9 -3 -14 -12 -11 -19 3 -8 -4 -19 -14 -25 -17 -11 -19 -9 -19 27 0 22 -4 43
-10 46 -6 4 -10 -13 -10 -44 0 -44 3 -51 20 -51 13 0 25 -12 35 -37 17 -40 13
-52 -9 -34 -12 10 -14 9 -9 -8 11 -44 43 -12 43 43 0 23 9 59 18 81 20 43 16
84 -8 95 -8 4 -36 17 -62 29 -27 12 -48 27 -48 36 0 14 3 14 25 -1 23 -15 27
-15 53 2 15 10 27 16 28 13 2 -7 54 58 54 67 -1 5 -10 -2 -20 -15 -11 -13 -20
-19 -20 -14 0 5 5 14 12 21 6 6 9 14 6 17 -3 3 -18 -13 -33 -35 -38 -55 -72
-55 -115 0 -40 50 -60 115 -60 191 0 47 4 61 24 80 26 25 26 42 1 32 -11 -4
-9 5 7 36 14 26 27 40 36 36 7 -2 10 -1 7 5 -3 5 4 8 15 7 13 -1 16 -5 10 -11
-19 -19 -11 -33 15 -28 15 2 22 9 18 16 -4 6 1 5 10 -3 9 -7 15 -17 12 -21 -7
-12 -78 -10 -93 2 -16 14 -24 6 -16 -16 5 -12 18 -16 53 -15 60 2 84 14 76 40
-4 11 -2 19 4 19 6 0 11 -6 11 -14 0 -7 7 -19 15 -26 8 -7 15 -19 15 -27 0
-13 -3 -13 -15 -3 -20 17 -19 2 5 -48 11 -22 20 -55 20 -72 0 -17 4 -29 10
-25 5 3 7 12 4 19 -3 7 1 18 9 25 12 9 15 6 15 -16 1 -38 -18 -83 -34 -83 -15
0 -18 -28 -5 -48 6 -10 10 -9 14 7 8 33 42 26 66 -15 12 -19 21 -43 21 -53 0
-9 7 -26 15 -37 13 -17 14 -17 15 -2 0 9 -4 20 -10 23 -5 3 -10 15 -10 27 0
20 -25 72 -46 94 -6 7 -11 32 -12 56 -3 60 -28 155 -52 187 -29 42 -90 79
-132 80 -21 0 -38 -4 -38 -8z"/>
<path d="M1660 1499 c0 -7 11 -9 31 -5 17 3 40 1 52 -6 20 -10 21 -10 8 5 -15
19 -91 24 -91 6z"/>
<path d="M1399 1469 c-9 -17 -8 -23 2 -30 19 -12 29 -11 29 2 0 5 6 7 13 4 6
-4 1 3 -13 16 l-25 22 27 -5 c15 -3 25 -1 22 3 -10 17 -43 9 -55 -12z"/>
<path d="M1674 1465 c-9 -21 -5 -23 34 -18 38 6 38 27 -1 31 -18 2 -29 -2 -33
-13z"/>
<path d="M1279 1453 c-10 -12 -10 -15 -1 -9 6 4 12 2 12 -4 0 -6 10 -8 26 -4
19 5 25 4 20 -5 -4 -6 -2 -11 4 -11 14 0 9 31 -5 32 -5 0 -17 4 -26 9 -12 6
-21 3 -30 -8z"/>
<path d="M1587 1417 c-9 -15 -12 -29 -7 -37 5 -8 6 -18 4 -22 -8 -12 35 -68
52 -68 22 0 17 16 -13 40 -17 13 -21 19 -10 16 10 -3 15 -2 12 3 -3 6 3 14 12
20 16 9 14 10 -9 11 -32 0 -44 16 -27 36 6 8 10 17 7 20 -3 2 -12 -6 -21 -19z"/>
<path d="M1327 1396 c-13 -33 20 -49 53 -25 12 8 10 9 -8 4 -17 -5 -24 -1 -30
16 -8 20 -9 20 -15 5z"/>
<path d="M1684 1375 c17 -26 14 -29 -29 -26 -17 2 -16 0 5 -12 16 -9 31 -11
43 -5 21 11 21 17 -2 46 -26 30 -37 28 -17 -3z"/>
<path d="M1408 1344 c-21 -21 -48 -24 -83 -7 l-30 14 24 -21 c30 -26 73 -26
96 0 22 24 16 36 -7 14z"/>
<path d="M304 1288 c4 -18 7 -43 6 -55 0 -26 15 -31 24 -8 3 8 15 15 26 15 22
0 27 15 8 26 -7 5 -8 3 -3 -6 5 -8 4 -11 -3 -7 -5 4 -8 17 -4 29 4 17 2 20
-11 15 -10 -4 -17 -2 -17 2 0 5 -7 12 -16 15 -14 5 -15 1 -10 -26z"/>
<path d="M1149 1263 c-21 -9 -29 -17 -20 -20 11 -5 11 -7 0 -14 -12 -8 -11
-11 1 -19 8 -5 22 -10 30 -10 13 0 13 1 0 10 -13 8 -12 10 5 11 11 1 23 1 28
0 4 0 7 3 7 8 0 5 -12 11 -27 13 -28 4 -28 4 7 14 23 7 29 12 19 16 -8 3 -31
-1 -50 -9z"/>
<path d="M211 1256 c19 -19 115 -86 123 -86 5 0 15 -8 22 -17 8 -11 13 -13 14
-6 0 7 -6 17 -12 22 -7 5 -34 28 -59 50 -26 23 -57 41 -69 41 -13 0 -21 -2
-19 -4z"/>
<path d="M986 1243 c-13 -14 -4 -19 27 -17 17 2 23 1 12 -2 -27 -8 -39 -20
-26 -28 6 -4 11 -3 11 1 0 12 47 10 59 -2 5 -5 11 -21 14 -35 3 -19 5 -16 6
11 1 23 -5 41 -16 51 -20 17 -77 31 -87 21z"/>
<path d="M1640 1225 c0 -28 15 -34 24 -9 10 25 7 34 -9 34 -9 0 -15 -9 -15
-25z"/>
<path d="M1678 1223 c-2 -17 -12 -32 -25 -38 -13 -5 -23 -13 -23 -18 0 -4 5
-5 11 -1 8 4 8 0 0 -15 -11 -19 -9 -21 14 -21 28 0 34 -17 8 -27 -10 -4 -23 2
-34 15 -25 31 -49 28 -49 -5 -1 -16 -9 -51 -19 -80 l-17 -51 22 -11 c17 -7 26
-26 37 -77 12 -51 23 -73 44 -90 15 -12 46 -38 68 -58 22 -20 50 -39 63 -42
12 -4 22 -10 22 -14 0 -4 8 -10 18 -14 9 -3 23 -9 30 -12 18 -8 4 18 -33 61
-20 24 -27 27 -34 16 -8 -12 -14 -11 -38 5 l-28 19 45 6 c48 7 83 -11 105 -52
8 -14 10 -1 8 54 -6 136 -10 149 -58 201 -25 26 -45 51 -45 56 0 4 -11 11 -24
14 -13 3 -31 8 -38 11 -9 4 -19 -5 -27 -22 -13 -27 -12 -27 7 -9 20 17 21 17
32 -3 6 -12 8 -27 4 -34 -4 -6 2 -3 14 7 22 19 22 19 22 -8 0 -15 3 -25 8 -22
25 15 73 -66 69 -118 -4 -42 -3 -42 -44 -51 -32 -6 -33 -5 -34 27 -1 30 -2 31
-8 8 -7 -26 -41 -41 -41 -18 0 10 -3 9 -10 -2 -7 -11 -10 -6 -10 19 0 31 -1
33 -13 17 -12 -16 -14 -16 -26 -2 -8 9 -13 27 -13 41 0 14 -3 25 -7 25 -15 0
-3 67 19 105 20 37 21 38 1 15 -11 -14 -23 -33 -27 -42 -3 -10 -9 -18 -14 -18
-23 0 -27 36 -10 80 18 45 26 49 67 36 19 -6 22 -2 28 42 7 53 25 93 25 57 0
-11 9 -35 20 -53 11 -18 18 -37 15 -41 -2 -5 4 -16 15 -26 17 -16 24 -16 47
-6 21 10 24 14 13 21 -9 6 -17 5 -21 -2 -10 -16 -28 0 -22 20 2 10 -3 24 -11
31 -9 8 -16 10 -16 5 0 -5 -7 4 -15 20 -19 37 -19 42 3 24 9 -8 30 -15 45 -16
44 -3 27 21 -21 31 -25 5 -49 18 -61 33 -24 31 -29 30 -33 -3z"/>
<path d="M921 1233 c-2 -26 -166 -33 -269 -12 -44 9 -56 8 -70 -4 -26 -22
-119 -32 -151 -16 -14 8 -29 18 -32 22 -4 5 -19 2 -35 -7 -25 -13 -26 -15 -8
-16 24 0 67 -37 59 -51 -4 -5 2 -9 12 -9 10 0 36 -3 58 -7 45 -7 41 5 -8 25
-26 10 -27 11 -6 7 14 -2 34 2 45 10 29 22 36 18 29 -15 -5 -22 -1 -40 15 -65
24 -39 31 -41 145 -50 44 -3 107 -9 140 -13 l59 -7 83 -226 c45 -125 83 -237
85 -250 2 -13 8 -31 13 -39 5 -8 8 -53 7 -100 -2 -74 1 -92 25 -142 15 -32 30
-58 34 -58 6 0 79 116 79 126 0 2 14 32 30 66 17 34 30 70 30 80 0 28 26 32
57 11 15 -10 41 -24 56 -31 15 -7 25 -17 22 -22 -3 -6 1 -10 9 -10 9 0 16 -4
16 -10 0 -5 5 -10 10 -10 16 0 -40 79 -61 85 -11 4 -40 22 -65 41 -25 19 -44
29 -43 22 1 -7 0 -22 -1 -33 -1 -13 -5 -9 -10 13 -5 23 -3 42 6 60 16 30 15
31 -116 135 -50 40 -55 47 -52 80 2 30 -2 39 -30 58 -38 27 -67 59 -68 75 0 6
-36 41 -80 78 -91 76 -93 84 -35 146 25 27 31 40 25 55 -5 11 -9 15 -9 8z
m-301 -42 c-13 -25 -13 -67 1 -93 16 -30 0 -36 -21 -8 -26 33 -25 64 2 95 26
30 32 32 18 6z m82 -46 c5 -6 8 -3 8 6 0 20 39 32 57 18 6 -6 17 -8 23 -4 5 3
10 -1 10 -10 0 -10 -5 -13 -12 -9 -8 4 -10 3 -5 -2 5 -5 13 -10 18 -10 22 -3
23 -5 9 -14 -13 -8 -12 -10 3 -10 20 0 22 11 6 27 -8 8 -7 17 5 34 9 13 16 17
16 10 0 -11 3 -11 17 0 14 13 14 10 -1 -20 -11 -20 -16 -48 -14 -67 4 -38 1
-40 -27 -20 -11 7 -31 16 -45 20 l-25 7 24 -20 c16 -14 19 -21 9 -21 -9 0 -37
19 -64 42 -27 23 -43 35 -36 28 6 -8 12 -18 12 -23 0 -4 -6 -5 -12 -1 -7 4 -4
-2 6 -14 26 -30 4 -28 -33 4 -33 27 -39 52 -19 84 12 19 13 19 38 -3 13 -12
28 -26 32 -32z m318 -262 c0 -8 4 -12 8 -9 12 7 54 -42 49 -57 -2 -6 4 -19 12
-29 14 -14 15 -29 7 -102 -10 -89 -21 -101 -32 -38 -4 20 -11 45 -16 56 -7 13
-6 21 3 27 12 7 12 9 0 9 -7 0 -11 6 -8 14 3 8 -1 17 -9 20 -9 3 -13 10 -10
14 3 5 -1 20 -8 34 -20 38 -25 87 -9 81 7 -3 13 -12 13 -20z m150 -195 c16
-13 40 -31 55 -41 21 -15 25 -26 24 -55 -1 -20 3 -54 10 -75 8 -24 9 -42 3
-50 -5 -7 -26 -43 -47 -82 -64 -119 -79 -122 -89 -18 -10 115 -17 323 -11 333
10 15 25 12 55 -12z"/>
<path d="M1840 1223 c0 -7 -7 -13 -15 -13 -13 0 -13 -3 -3 -20 11 -17 15 -18
26 -6 11 10 11 19 3 32 -6 11 -11 13 -11 7z"/>
<path d="M940 1159 c0 -5 9 -26 19 -47 18 -34 45 -63 124 -131 30 -27 38 -12
8 16 -10 10 -26 32 -34 48 -9 17 -16 24 -17 16 0 -24 -58 38 -65 70 -6 26 -35
50 -35 28z"/>
<path d="M1175 1147 c10 -8 15 -19 11 -26 -5 -8 -12 -9 -20 -2 -7 6 -17 6 -26
1 -22 -14 -47 -12 -65 6 -14 15 -15 14 -11 -12 5 -28 5 -28 -11 -9 -10 14 -17
16 -20 8 -6 -16 -5 -23 5 -24 4 0 23 -10 42 -22 33 -19 34 -20 18 -1 -17 19
-16 20 27 30 25 6 45 7 45 3 0 -4 11 -2 25 4 31 15 31 22 3 41 -27 19 -49 21
-23 3z"/>
<path d="M1331 983 c5 -14 9 -26 9 -29 0 -9 -75 9 -82 20 -9 13 -11 -26 -2
-48 7 -19 25 -20 77 -5 32 9 36 12 27 29 -5 10 -10 27 -10 38 0 10 -6 19 -14
19 -11 0 -12 -6 -5 -24z"/>
<path d="M1155 981 l-29 -14 24 -10 c14 -5 41 -11 60 -14 34 -4 35 -4 15 14
-11 10 -24 23 -30 28 -7 8 -19 6 -40 -4z"/>
<path d="M1522 945 c-17 -36 -15 -45 7 -45 28 0 34 15 18 45 l-13 26 -12 -26z"/>
<path d="M1230 810 c28 -22 39 -24 59 -11 11 7 4 12 -25 20 -55 15 -63 13 -34
-9z"/>
<path d="M1382 811 c-34 -3 -62 -9 -62 -14 0 -54 76 -277 100 -292 21 -13 3
57 -19 75 -8 6 -31 94 -26 98 5 5 55 -95 66 -128 6 -20 7 -21 8 -5 1 26 -27
101 -56 147 -13 21 -23 52 -23 69 l0 31 53 -6 c71 -7 85 -13 103 -49 13 -24
14 -31 2 -38 -10 -7 -10 -9 2 -9 9 0 27 -13 40 -30 14 -16 31 -29 39 -30 8 0
11 -7 8 -20 -4 -17 -1 -19 19 -14 20 5 24 2 24 -15 0 -14 6 -21 19 -21 33 0
89 -84 93 -140 1 -17 6 -34 10 -36 11 -7 -2 -106 -15 -123 -7 -8 -11 -17 -9
-20 2 -3 -2 -7 -9 -10 -6 -2 -9 1 -5 7 3 6 -3 13 -14 17 -11 3 -27 14 -37 23
-9 9 -19 17 -22 18 -21 3 -40 18 -35 26 4 6 -1 8 -13 4 -14 -4 -25 2 -41 24
-13 16 -29 30 -37 30 -20 0 -19 -10 1 -25 14 -10 18 -40 22 -184 3 -120 8
-171 16 -168 7 3 10 41 9 116 -1 82 2 109 10 104 9 -5 9 -3 1 8 -6 8 -14 26
-18 41 -10 42 18 36 100 -20 72 -49 83 -71 64 -127 -4 -11 -10 -44 -14 -72 -6
-49 -5 -53 13 -53 25 0 35 36 51 180 7 58 14 122 17 142 3 25 -4 65 -21 119
-14 44 -26 86 -26 94 0 8 -21 29 -47 47 -93 63 -172 135 -160 147 7 7 5 17 -9
32 -20 22 -87 60 -101 57 -4 -1 -36 -4 -71 -7z"/>
<path d="M2310 700 c-40 -7 -48 -5 95 -35 44 -10 109 -28 144 -41 35 -13 76
-24 91 -24 35 0 91 20 85 30 -3 4 -26 0 -51 -9 -35 -12 -48 -13 -51 -4 -2 7
-10 10 -17 7 -16 -6 -82 22 -107 45 -19 17 -105 42 -137 40 -9 -1 -33 -5 -52
-9z"/>
<path d="M2773 687 c-37 -14 -54 -28 -24 -20 12 3 21 1 21 -6 0 -6 10 -11 23
-11 28 0 53 15 39 24 -6 3 -13 2 -17 -4 -8 -13 -25 -13 -25 1 0 5 3 8 8 5 4
-2 16 2 27 10 19 14 19 14 -1 13 -10 0 -33 -6 -51 -12z"/>
<path d="M1874 663 c1 -10 11 -33 23 -52 12 -18 19 -41 16 -50 -4 -14 -3 -14
6 -1 6 8 8 23 5 34 -5 13 -2 17 7 12 8 -4 2 2 -13 14 -16 12 -28 30 -28 41 0
10 -4 19 -9 19 -4 0 -8 -8 -7 -17z"/>
<path d="M2213 663 c-24 -16 -30 -33 -14 -33 6 0 23 11 38 25 32 28 13 34 -24
8z"/>
<path d="M1952 595 c4 -4 2 -15 -5 -23 -17 -21 -16 -74 2 -67 9 4 11 0 7 -12
-4 -10 -4 -14 0 -10 4 4 13 -1 21 -11 10 -12 10 -8 -2 15 -21 44 -19 49 8 27
l22 -19 -19 22 c-10 13 -23 20 -27 17 -10 -6 -7 25 4 43 4 6 2 15 -5 19 -7 4
-10 4 -6 -1z"/>
<path d="M2060 577 c0 -14 -7 -44 -15 -67 -19 -54 -13 -62 10 -14 19 40 26 92
13 100 -4 3 -8 -6 -8 -19z"/>
<path d="M2300 545 c-19 -7 -49 -14 -66 -14 -21 -1 -45 -13 -75 -39 -24 -21
-53 -44 -64 -50 -17 -10 -18 -11 -2 -12 11 0 17 -8 17 -24 0 -14 5 -28 10 -31
10 -6 12 1 13 43 0 12 6 22 13 22 7 0 16 10 20 23 7 21 7 21 15 2 7 -19 8 -19
8 2 1 17 5 21 18 16 12 -5 14 -3 8 7 -6 10 -2 11 19 6 18 -4 26 -2 26 6 0 10
2 10 9 0 6 -10 10 -8 16 10 6 19 8 15 15 -25 8 -46 25 -85 19 -42 -2 11 2 29
8 40 15 28 25 75 16 74 -5 0 -24 -7 -43 -14z"/>
<path d="M1856 489 c22 -17 42 -38 46 -47 4 -10 7 -12 7 -4 1 9 8 11 20 7 16
-5 18 -2 13 17 -3 12 -7 17 -9 11 -5 -14 -43 -5 -43 11 0 6 -12 17 -27 24 -45
20 -48 14 -7 -19z"/>
<path d="M1047 457 c-35 -30 -34 -47 3 -47 28 0 30 3 30 35 0 19 -2 35 -3 35
-2 0 -16 -10 -30 -23z"/>
<path d="M2240 462 c-13 -14 -12 -15 2 -10 21 9 32 -31 18 -69 -9 -26 -9 -27
5 -9 14 19 15 19 15 -6 0 -29 -15 -46 -23 -26 -3 9 -7 7 -12 -6 -4 -10 -4 -21
1 -25 15 -11 16 -34 1 -28 -10 4 -17 -8 -24 -39 -6 -24 -6 -41 -2 -38 5 3 9
-4 9 -16 0 -12 -4 -19 -9 -16 -5 3 -11 -4 -14 -17 -2 -12 -8 -31 -12 -42 -5
-16 -5 -17 4 -5 7 9 11 10 11 3 0 -6 -5 -15 -11 -19 -6 -3 -9 -15 -6 -25 3
-11 1 -17 -3 -14 -5 3 -8 -8 -8 -25 1 -35 15 -39 27 -7 14 34 51 170 51 186 0
8 -6 11 -15 7 -8 -3 -15 -1 -15 4 0 6 5 10 11 10 5 0 7 6 3 13 -6 9 -5 9 7 0
14 -11 18 -3 30 60 7 39 13 78 12 85 0 6 3 12 8 12 5 0 6 7 2 16 -5 13 -8 13
-15 2 -6 -9 -7 -3 -3 17 4 16 3 27 -1 23 -4 -4 -12 -1 -18 7 -9 12 -13 11 -26
-3z"/>
<path d="M1950 414 c0 -57 24 -171 38 -183 15 -12 15 -13 -5 -8 -21 5 -33 -7
-15 -15 5 -1 12 -18 15 -36 7 -35 2 -40 -42 -44 -23 -3 -26 3 -46 87 -20 82
-22 126 -6 110 3 -4 11 -29 16 -57 7 -37 17 -55 35 -67 l25 -16 -22 28 c-13
16 -24 50 -28 81 -7 52 -7 52 -41 52 -27 -1 -33 -4 -28 -18 4 -15 14 -62 30
-153 9 -47 44 -115 60 -115 8 0 29 8 47 18 l32 17 3 90 c4 145 13 228 24 217
10 -10 15 -31 18 -72 l2 -25 8 25 7 25 11 -25 c11 -25 11 -25 11 6 1 17 -6 37
-14 44 -8 7 -15 20 -15 29 0 13 -12 16 -60 17 -42 0 -60 -4 -60 -12z"/>
<path d="M1295 401 c-4 -8 -2 -16 5 -21 9 -6 9 -9 -1 -12 -11 -4 -14 -40 -14
-174 0 -93 -4 -175 -8 -181 -5 -8 -4 -13 3 -13 6 0 13 7 17 16 4 11 13 14 32
9 25 -6 25 -6 6 8 -21 16 -25 52 -25 197 0 19 -1 46 -2 60 -2 18 1 24 12 22
11 -2 11 1 -2 11 -19 15 -25 33 -8 22 12 -7 12 21 1 49 -6 15 -10 16 -16 7z"/>
<path d="M1445 391 c26 -4 36 -9 27 -14 -7 -5 -10 -13 -7 -18 4 -5 -1 -9 -10
-9 -10 0 -13 -4 -8 -12 4 -7 6 -21 4 -32 -2 -12 1 -16 9 -11 6 4 10 15 7 25
-3 10 5 24 19 35 22 17 23 19 6 31 -9 7 -33 13 -52 12 l-35 -1 40 -6z"/>
<path d="M1500 344 c-14 -16 -16 -21 -24 -84 -2 -19 -11 -78 -20 -130 -20
-122 -20 -130 3 -130 21 0 25 14 41 159 6 52 16 114 22 138 12 50 0 75 -22 47z"/>
<path d="M2040 229 c0 -19 23 -69 32 -69 4 0 2 14 -3 32 -10 37 -29 60 -29 37z"/>
<path d="M2137 119 c3 -12 0 -25 -7 -29 -14 -9 -5 -30 13 -30 7 0 6 4 -3 10
-10 6 -11 10 -2 10 7 0 12 13 12 30 0 17 -4 30 -9 30 -5 0 -7 -9 -4 -21z"/>
</g>
</svg>
