<svg version="1.0" xmlns="http://www.w3.org/2000/svg"
 width="300.000000pt" height="300.000000pt" viewBox="0 0 300.000000 300.000000"
 preserveAspectRatio="xMidYMid meet">
<metadata>
Created by potrace 1.10, written by Peter Selinger 2001-2011
</metadata>
<g transform="translate(0.000000,300.000000) scale(0.100000,-0.100000)"
fill="#000000" stroke="none">
<path d="M1953 2528 c-20 -25 -104 -264 -168 -478 -20 -69 -51 -163 -68 -210
-18 -47 -32 -90 -32 -96 0 -6 -7 -23 -14 -38 -8 -14 -12 -28 -9 -31 8 -9 190
-36 197 -30 7 7 46 110 70 185 10 30 30 80 46 110 17 34 31 82 37 129 15 121
36 140 52 46 10 -57 76 -278 86 -289 4 -4 13 -6 18 -2 6 3 2 21 -9 43 -11 21
-18 49 -17 63 3 23 8 25 60 30 82 7 81 18 -2 14 -56 -3 -70 0 -70 11 0 8 12
17 28 21 45 10 49 14 11 11 -38 -3 -46 2 -69 47 -13 25 -13 29 3 41 9 7 17 17
17 23 0 12 24 22 51 22 33 0 21 -20 -13 -21 l-33 -2 30 -4 c48 -7 63 -43 18
-43 -22 0 -25 2 -13 10 13 8 13 10 -1 10 -9 0 -24 -10 -35 -21 l-19 -22 40 7
c22 4 48 9 58 12 33 10 17 -14 -20 -30 -28 -12 -31 -15 -11 -11 47 9 78 24 84
40 4 8 15 15 26 15 10 0 17 4 14 9 -3 5 2 19 12 30 l17 22 48 -21 49 -22 -21
-22 c-12 -12 -45 -28 -73 -36 -29 -7 -48 -15 -41 -17 6 -2 28 0 47 6 28 7 36
6 36 -3 0 -18 -46 -66 -63 -66 -8 0 -28 -7 -43 -15 -20 -10 -23 -15 -11 -15 9
0 17 -3 17 -7 0 -13 -34 -60 -63 -87 -27 -25 -35 -46 -18 -46 4 0 26 21 47 46
22 25 60 68 87 95 26 27 61 72 78 99 17 28 35 50 40 50 13 0 11 -243 -2 -372
-16 -152 -14 -156 96 -185 48 -13 90 -21 94 -18 3 3 6 189 7 413 1 331 4 415
16 449 l15 42 -30 10 c-16 6 -48 11 -71 10 l-41 -1 35 -10 c54 -15 80 -30 73
-41 -3 -5 -9 -43 -13 -83 -4 -41 -14 -81 -21 -91 -14 -17 -151 -83 -172 -83
-27 0 -87 22 -87 31 0 6 16 35 36 65 36 53 36 54 77 48 l42 -5 -34 16 c-29 13
-32 17 -20 32 8 9 27 22 44 29 20 9 24 13 12 14 -12 0 -17 6 -15 18 3 13 12
16 38 14 23 -1 30 1 21 7 -11 7 -11 9 0 14 8 3 5 6 -8 6 -16 1 -21 6 -17 16
14 34 -14 11 -49 -43 -21 -31 -53 -76 -70 -98 -18 -23 -54 -72 -81 -108 -41
-57 -52 -67 -75 -64 -22 2 -29 12 -43 54 -9 29 -28 69 -42 89 -14 20 -28 53
-31 74 -3 20 -15 67 -26 104 -22 72 -29 79 -101 92 -23 4 -38 2 -45 -7z m89
-29 c15 -8 51 -103 61 -162 4 -25 1 -28 -34 -33 -22 -4 -39 -10 -39 -15 0 -11
7 -11 47 0 28 8 34 6 47 -15 21 -32 20 -34 -11 -28 -44 9 -80 -10 -88 -46 -4
-20 -15 -34 -31 -40 -13 -5 -24 -14 -24 -19 0 -6 7 -8 15 -5 9 4 15 0 15 -10
0 -9 -4 -16 -9 -16 -4 0 -6 -11 -4 -24 5 -25 -40 -175 -63 -211 -7 -11 -18
-41 -24 -67 -9 -36 -18 -49 -39 -57 -17 -6 -20 -10 -8 -10 15 -1 16 -4 5 -23
-7 -13 -11 -29 -10 -35 3 -14 -32 -15 -83 -4 l-30 7 25 8 c24 8 24 9 3 13 -12
2 -33 -3 -47 -13 -23 -14 -26 -14 -26 -1 0 25 26 44 72 51 24 4 59 16 78 27
26 15 29 18 10 13 -14 -3 -40 -13 -59 -20 -33 -14 -81 -19 -81 -9 0 3 9 24 20
45 13 26 27 40 40 40 11 0 20 5 20 10 0 6 -9 10 -20 10 -11 0 -20 4 -20 9 0
11 25 21 50 21 10 0 22 5 26 11 5 9 -3 10 -29 5 -32 -6 -36 -5 -30 11 11 31
25 43 52 44 23 0 24 1 6 8 -11 5 -26 6 -34 3 -10 -4 -13 -1 -8 12 4 10 7 22 7
27 0 5 11 9 25 9 14 0 25 5 25 11 0 6 -9 8 -20 4 -17 -5 -19 -3 -11 17 5 14
18 24 32 26 47 5 70 13 64 21 -2 5 6 12 20 15 14 4 25 11 25 16 0 5 -19 0 -42
-10 -44 -20 -78 -26 -78 -13 0 4 7 33 16 65 12 43 24 63 43 74 14 8 18 13 8
10 -15 -5 -17 -1 -13 22 11 61 18 72 43 72 13 0 21 4 18 10 -3 6 2 10 12 11
24 1 65 8 83 15 22 8 -7 24 -45 24 l-30 1 24 20 c13 11 30 18 38 15 7 -3 13
-1 13 4 0 12 -44 24 -62 17 -7 -3 -2 -6 12 -7 25 -2 25 -2 -5 -15 -16 -8 -36
-14 -43 -15 -20 0 4 37 36 55 l27 15 -27 -6 c-26 -6 -37 4 -22 19 7 7 61 -2
86 -14z m-66 -115 c-60 -15 -73 -13 -61 5 3 6 32 11 63 10 l57 -1 -59 -14z
m176 -163 c4 -1 6 -14 6 -31 -1 -24 -7 -32 -37 -44 -36 -14 -48 -8 -37 19 3 8
18 15 33 16 l28 1 -29 8 c-16 5 -34 7 -39 3 -11 -6 -28 17 -21 29 4 6 50 6 96
-1z m468 -76 c0 -50 -2 -56 -25 -65 -30 -12 -34 -24 -4 -15 21 7 21 5 15 -56
-3 -35 -6 -84 -6 -107 1 -24 -5 -51 -12 -59 -10 -13 -10 -17 0 -20 6 -3 12
-13 12 -24 0 -22 -115 -85 -125 -68 -15 23 4 39 37 33 l33 -6 -35 20 c-33 18
-35 22 -31 63 1 23 9 49 17 56 18 19 18 24 -1 17 -9 -4 -15 0 -15 10 0 9 5 16
10 16 7 0 7 6 0 19 -13 25 -13 61 1 61 5 0 8 4 5 9 -4 5 7 12 24 16 16 4 32
11 35 15 3 5 -13 3 -36 -5 -52 -19 -49 -19 -49 5 0 16 7 20 38 21 36 1 36 1 7
8 l-30 7 35 8 c82 18 92 30 38 44 l-32 8 35 21 c53 33 59 30 59 -32z m-60 -9
c0 -2 -20 -11 -45 -19 -45 -16 -65 -4 -22 13 23 9 67 13 67 6z m48 -404 c3
-18 -2 -22 -22 -22 -17 0 -26 -6 -26 -15 0 -13 4 -14 20 -5 16 9 22 8 27 -6 4
-10 0 -22 -10 -29 -20 -15 -22 -26 -3 -19 14 5 26 -22 26 -60 0 -17 -6 -18
-71 -12 -39 3 -75 9 -80 12 -5 3 -9 18 -9 35 0 23 4 29 21 29 11 0 17 4 14 10
-3 5 6 12 20 16 14 3 25 10 25 15 0 5 -15 3 -34 -5 -35 -15 -46 -12 -46 11 0
7 11 13 26 13 14 0 23 4 19 10 -7 11 73 52 90 46 6 -1 11 -12 13 -24z"/>
<path d="M1955 2323 c-34 -8 -39 -22 -12 -28 14 -4 32 -5 39 -2 7 3 2 6 -12 7
-23 1 -22 3 10 15 34 13 18 18 -25 8z"/>
<path d="M1953 2255 c11 -7 26 -11 35 -8 10 4 13 2 8 -5 -11 -18 20 -14 35 4
12 15 10 16 -24 12 -20 -2 -37 0 -37 4 0 4 -8 8 -17 8 -17 -1 -17 -2 0 -15z"/>
<path d="M1920 2223 c-39 -7 -48 -23 -13 -23 17 0 36 7 43 15 7 8 9 14 4 14
-5 -1 -20 -4 -34 -6z"/>
<path d="M1913 2186 c-52 -21 -68 -36 -38 -36 8 0 15 5 15 10 0 6 9 10 19 10
10 0 29 9 42 20 29 23 28 23 -38 -4z"/>
<path d="M1870 1940 c-19 -11 -30 -19 -24 -20 15 0 84 29 84 35 0 10 -26 4
-60 -15z"/>
<path d="M1850 1901 c0 -6 4 -12 9 -15 13 -8 42 4 35 15 -7 12 -44 12 -44 0z"/>
<path d="M555 2424 c-66 -7 -146 -15 -179 -18 -89 -7 -91 -11 -89 -179 1 -78
11 -223 23 -322 12 -99 26 -214 31 -255 5 -41 11 -108 14 -149 3 -41 7 -76 9
-78 2 -3 18 3 36 12 25 13 46 15 102 9 l70 -7 -5 29 c-4 16 -9 65 -12 109 -3
44 -13 119 -22 166 -9 47 -14 93 -10 101 8 21 64 31 190 33 59 1 112 6 118 12
6 6 7 36 3 78 -10 94 -26 109 -107 100 -34 -4 -78 -11 -97 -16 -19 -5 -56 -9
-82 -9 -52 0 -50 -3 -63 107 -9 70 -9 70 205 88 30 3 88 10 129 17 l74 11 -6
80 c-4 44 -9 83 -12 86 -11 10 -200 7 -320 -5z m205 -21 c0 -5 -14 -32 -30
-62 -17 -30 -30 -60 -30 -68 0 -15 -41 -18 -56 -3 -8 8 -15 6 -24 -5 -18 -22
-70 -20 -71 3 0 13 -2 14 -6 2 -8 -20 -24 -30 -48 -29 -16 0 -13 6 20 36 22
20 32 30 22 23 -27 -20 -32 -4 -8 28 12 17 21 35 21 41 0 15 34 31 66 31 26 0
27 0 9 -20 -16 -17 -16 -20 -2 -20 9 0 22 9 29 19 13 18 37 27 86 30 12 0 22
-2 22 -6z m88 -27 c2 -16 -2 -32 -10 -37 -10 -7 -9 -9 5 -9 20 0 21 -4 7 -31
-13 -24 -60 -26 -60 -2 0 14 -3 14 -22 -4 -26 -23 -58 -36 -58 -24 0 5 7 14
15 21 9 7 13 15 11 18 -3 3 3 17 14 32 11 16 20 32 20 37 0 18 25 34 50 31 19
-2 26 -10 28 -32z m-298 16 c0 -5 -9 -17 -20 -27 -11 -10 -20 -24 -20 -31 0
-30 -63 -115 -103 -139 -23 -14 -36 -25 -29 -25 8 0 5 -10 -9 -29 -12 -16 -19
-35 -17 -43 3 -8 12 1 23 22 10 19 30 48 45 63 26 27 28 27 33 8 4 -16 -3 -26
-29 -42 -35 -21 -46 -36 -19 -25 13 5 14 2 4 -17 -10 -19 -7 -18 18 6 28 26
31 27 37 10 5 -12 2 -21 -9 -28 -9 -5 -24 -16 -33 -23 -16 -12 -15 -13 2 -8
18 6 18 5 1 -21 -10 -16 -25 -37 -35 -48 -23 -27 -43 -65 -36 -72 7 -8 27 7
21 17 -3 4 10 27 29 49 19 23 38 50 41 61 8 26 21 25 29 -2 5 -18 -3 -31 -37
-60 -23 -21 -37 -38 -31 -38 6 0 17 7 24 15 7 8 17 15 24 15 6 0 -13 -23 -42
-51 -73 -73 -71 -112 3 -55 23 18 13 21 -16 6 -30 -17 -23 -3 28 51 48 51 89
79 118 79 24 0 17 -19 -10 -26 -14 -3 -25 -10 -25 -14 0 -5 10 -6 22 -2 14 3
-11 -26 -65 -78 -48 -46 -86 -89 -83 -96 4 -11 -24 -30 -33 -22 -5 5 -15 126
-15 179 1 26 8 57 17 70 23 32 21 50 -2 20 -24 -31 -29 -17 -36 104 -5 78 -4
94 8 90 7 -3 22 5 33 17 12 14 13 18 3 10 -32 -24 -65 8 -37 36 9 9 8 12 -6
12 -13 0 -16 5 -10 23 11 38 25 47 71 47 41 0 44 -2 32 -17 -8 -9 -27 -24 -44
-35 -16 -10 -24 -18 -16 -18 11 0 11 -4 -2 -18 -10 -10 -17 -22 -17 -27 0 -5
28 21 63 58 49 52 69 66 97 70 19 2 41 5 48 5 6 1 12 -2 12 -6z m210 -360 c0
-5 -10 -14 -22 -20 -13 -7 -43 -28 -67 -47 -24 -20 -46 -34 -48 -31 -10 10 58
95 80 99 39 8 57 7 57 -1z m-140 -40 c-9 -3 -9 -6 -1 -11 8 -5 3 -17 -14 -37
-26 -30 -31 -44 -17 -44 9 0 80 46 127 82 30 23 30 22 -7 -27 -31 -42 -43 -51
-80 -58 -109 -18 -148 -29 -148 -40 0 -7 -18 -23 -40 -37 -21 -13 -35 -27 -29
-30 6 -4 1 -18 -12 -36 -11 -16 -1 -8 23 19 24 26 49 47 56 47 6 0 16 -18 22
-41 13 -48 6 -61 -51 -90 -52 -26 -52 -25 -8 20 38 38 49 61 29 61 -5 0 -10
-5 -10 -11 0 -5 -4 -8 -9 -5 -4 3 -17 -4 -27 -15 -17 -19 -17 -20 1 -13 14 6
10 -4 -15 -34 -30 -36 -35 -38 -38 -21 -2 11 4 26 14 34 17 12 16 13 -4 19
-28 9 -28 32 -2 46 11 6 18 16 14 21 -7 13 54 79 73 79 7 0 22 13 34 30 12 16
25 28 28 25 4 -2 20 9 37 23 16 15 24 23 17 18 -20 -13 -28 1 -12 20 18 22 53
34 58 21 2 -6 -2 -13 -9 -15z m170 18 c0 -14 -57 -76 -64 -69 -7 7 42 79 54
79 6 0 10 -4 10 -10z m10 -80 c0 -29 -1 -30 -50 -30 -27 0 -50 3 -50 8 0 9 71
51 88 52 7 0 12 -12 12 -30z m-320 -249 c0 -5 -12 -16 -26 -26 -14 -9 -23 -19
-20 -23 4 -3 22 10 41 28 19 18 37 32 39 29 2 -2 6 -33 7 -69 l3 -64 -34 -14
c-19 -7 -45 -22 -58 -33 -36 -28 -49 -23 -21 8 17 20 18 23 3 10 -11 -9 -24
-17 -27 -17 -12 0 -8 35 5 48 6 6 13 22 15 34 3 18 1 20 -9 10 -19 -19 -28
-14 -28 13 0 14 6 25 13 25 7 0 28 11 47 25 38 26 50 30 50 16z m50 -176 l0
-35 -54 0 c-30 0 -61 -3 -70 -6 -38 -15 -11 14 42 43 73 41 82 41 82 -2z"/>
<path d="M656 2343 c-8 -16 -15 -24 -16 -20 0 5 -10 1 -22 -7 -31 -22 -45 -20
-23 4 15 17 16 20 3 20 -17 0 -28 -20 -28 -51 0 -19 2 -18 34 6 23 17 35 22
38 14 2 -7 14 4 26 24 12 21 17 37 12 37 -5 0 -16 -12 -24 -27z"/>
<path d="M811 2373 c-17 -12 -20 -18 -10 -24 8 -5 18 0 27 12 19 27 11 32 -17
12z"/>
<path d="M432 2323 c-11 -16 -27 -44 -37 -63 -9 -19 -29 -48 -44 -64 l-26 -30
35 28 c69 56 120 104 120 112 0 4 -16 -7 -35 -26 -19 -19 -35 -29 -35 -23 0 6
7 16 15 23 19 16 46 70 35 70 -5 0 -17 -12 -28 -27z"/>
<path d="M443 1608 c-13 -6 -23 -15 -23 -20 0 -5 10 -6 23 -2 22 7 22 6 3 -15
-11 -11 -14 -21 -8 -21 10 0 52 51 52 64 0 9 -22 6 -47 -6z"/>
<path d="M1160 2411 c0 -8 -29 -105 -64 -215 -86 -272 -146 -469 -146 -480 0
-5 -12 -34 -26 -64 -14 -30 -22 -58 -17 -62 4 -5 40 -10 78 -12 l70 -3 27 55
c14 30 33 71 41 92 20 45 48 53 163 43 l83 -7 43 -76 44 -77 86 0 c48 0 89 3
93 6 6 6 -116 300 -186 449 -36 75 -61 153 -102 313 -6 26 -16 47 -22 47 -5 0
-45 2 -87 4 -65 2 -78 0 -78 -13z m45 -7 c14 -6 13 -9 -6 -30 -30 -32 -40 -30
-26 6 6 17 12 30 13 30 1 0 10 -3 19 -6z m121 -40 c8 -19 19 -56 24 -82 8 -44
7 -48 -26 -84 -51 -57 -45 -90 10 -47 36 28 33 9 -4 -24 -38 -34 -46 -34 -59
3 -10 30 -31 41 -31 17 0 -17 -49 -87 -61 -87 -6 0 -7 5 -3 11 5 8 1 8 -14 0
-12 -6 -24 -16 -28 -22 -4 -8 -1 -8 13 -1 34 19 46 0 27 -41 -10 -20 -14 -40
-10 -44 11 -12 44 34 51 70 4 18 14 43 24 55 l17 23 27 -68 c15 -37 28 -72 30
-78 1 -6 -29 -12 -69 -15 -63 -4 -74 -8 -97 -35 -41 -47 -32 -62 13 -21 25 22
50 36 67 36 l26 0 -24 -20 c-13 -11 -37 -31 -54 -45 -22 -18 -26 -24 -13 -25
9 0 20 5 23 10 7 12 81 60 91 60 4 0 0 -8 -7 -17 -7 -10 -2 -8 12 5 30 26 39
28 39 7 0 -9 -16 -25 -35 -36 -19 -12 -35 -23 -35 -25 0 -11 60 22 98 53 34
28 46 33 52 22 5 -8 4 -19 -2 -26 -21 -26 9 -12 33 15 13 15 17 21 9 15 -20
-18 -35 -16 -20 2 11 13 10 14 -4 9 -13 -5 -15 -2 -9 12 8 22 41 60 46 53 2
-2 14 -31 27 -64 13 -33 37 -84 52 -113 15 -30 25 -59 22 -64 -4 -6 0 -14 7
-19 11 -8 8 -14 -14 -34 -22 -19 -24 -25 -11 -25 9 0 23 8 30 18 11 15 14 14
28 -20 9 -21 16 -42 16 -48 0 -17 -133 -1 -147 18 -18 23 -17 25 22 46 19 11
35 23 35 29 0 5 -16 0 -36 -12 -42 -25 -44 -25 -44 -6 0 8 -6 14 -12 13 -8 -2
-12 5 -10 16 2 10 -2 22 -9 27 -10 6 -10 11 2 25 13 16 12 17 -6 10 -27 -12
-71 -20 -65 -13 11 12 81 57 89 57 5 0 14 7 21 15 25 30 -23 16 -56 -16 -31
-30 -33 -31 -27 -8 l5 24 -18 -25 c-25 -35 -46 -49 -69 -49 -16 0 -13 6 19 34
22 19 35 35 29 35 -6 0 -16 -7 -23 -15 -7 -9 -19 -14 -26 -11 -7 3 -16 -3 -19
-13 -4 -13 -20 -21 -51 -26 -56 -8 -67 0 -34 25 35 27 17 25 -25 -2 -19 -13
-33 -28 -31 -33 5 -15 -15 -40 -39 -49 -14 -5 -16 -9 -7 -15 10 -6 6 -21 -14
-65 l-27 -58 -44 5 c-67 7 -73 20 -29 61 21 18 33 37 28 40 -6 3 -12 0 -15 -6
-2 -7 -8 -9 -13 -5 -5 5 12 26 39 49 47 40 60 68 33 68 -18 0 -30 -17 -15 -22
5 -2 -4 -14 -20 -26 -31 -22 -45 -16 -17 8 8 6 12 18 9 25 -10 27 19 85 65
132 38 38 41 43 14 24 -18 -13 -35 -21 -38 -18 -8 8 64 59 74 53 11 -6 52 21
52 35 0 6 -4 7 -10 4 -5 -3 -20 -8 -32 -10 -11 -3 -32 -14 -45 -26 -12 -13
-26 -20 -29 -16 -3 3 6 17 20 30 24 23 76 92 76 103 0 2 -9 -1 -20 -8 -11 -7
-20 -20 -20 -28 0 -21 -26 -57 -35 -48 -4 3 2 27 13 52 15 33 34 53 69 75 26
17 44 31 39 31 -5 0 -2 7 5 17 13 15 12 15 -8 4 -13 -6 -23 -16 -23 -21 0 -5
-13 -16 -30 -25 l-30 -15 6 32 c11 69 14 76 36 82 13 3 51 31 86 62 80 72 86
112 7 50 -20 -16 -20 -16 0 -10 14 4 8 -5 -18 -30 -36 -34 -68 -56 -82 -56
-12 0 19 45 63 92 36 39 51 48 79 48 30 0 36 -5 49 -36z m36 -182 c-53 -41
-68 -35 -25 10 20 21 29 25 35 16 4 -8 1 -18 -10 -26z m28 -37 c0 -8 -4 -15
-10 -15 -5 0 -10 -4 -10 -9 0 -5 7 -8 16 -7 9 0 20 -6 24 -14 4 -8 12 -25 18
-37 17 -32 15 -41 -9 -53 -29 -16 -33 -8 -9 18 12 12 17 22 12 22 -12 0 -63
-55 -57 -62 3 -3 -1 -8 -9 -11 -25 -10 -27 33 -3 55 l22 19 -23 -11 c-21 -11
-22 -10 -10 9 7 12 16 21 19 21 4 0 10 8 14 18 3 9 -9 2 -28 -17 l-35 -33 -12
22 c-11 20 -10 22 3 17 11 -4 14 -2 10 9 -3 10 2 14 18 15 13 0 18 3 11 6 -10
4 -8 11 9 29 26 28 39 31 39 9z m1 -187 c-24 -21 -47 -38 -52 -38 -19 0 -8 30
16 46 14 9 23 19 20 23 -2 4 10 8 27 8 l32 0 -43 -39z"/>
<path d="M1293 2333 c-12 -2 -20 -10 -18 -16 2 -7 -29 -36 -70 -65 -41 -29
-75 -57 -75 -63 0 -16 10 -10 67 39 83 70 129 112 123 110 -3 0 -15 -3 -27 -5z"/>
<path d="M1284 2259 c-27 -8 -78 -49 -60 -49 9 0 96 51 96 56 0 2 -1 4 -2 3
-2 0 -17 -5 -34 -10z"/>
<path d="M1216 2164 c-50 -38 -57 -61 -9 -26 29 21 70 62 61 62 -3 0 -26 -16
-52 -36z"/>
<path d="M1066 1893 c-25 -27 -46 -51 -46 -55 0 -10 68 31 77 46 4 6 -1 5 -10
-3 -27 -21 -20 0 10 31 15 15 24 28 21 28 -3 0 -26 -21 -52 -47z"/>
<path d="M1441 1803 c-14 -12 -14 -12 4 -6 18 6 19 5 5 -12 -14 -17 -14 -18 6
-7 11 6 26 18 33 26 11 12 9 15 -9 13 -12 -1 -30 -7 -39 -14z"/>
<path d="M1504 1785 c-4 -8 -9 -13 -13 -10 -4 2 -8 -2 -8 -10 0 -8 2 -15 4
-15 7 0 43 35 43 42 0 14 -20 8 -26 -7z"/>
<path d="M1025 1700 c-18 -20 -15 -38 4 -25 15 9 33 45 23 45 -5 0 -17 -9 -27
-20z"/>
<path d="M2587 2384 c-3 -4 -21 -10 -39 -15 -30 -8 -29 -8 11 -5 42 4 84 26
50 26 -9 0 -18 -3 -22 -6z"/>
<path d="M2540 2313 c8 -3 18 -10 21 -16 4 -5 12 -6 18 -3 21 14 11 26 -21 25
-18 0 -26 -3 -18 -6z"/>
<path d="M2504 2263 c-17 -12 -17 -13 2 -12 21 1 72 16 64 19 -21 7 -51 4 -66
-7z"/>
<path d="M2405 2190 c-7 -11 59 -25 74 -15 22 13 10 23 -29 23 -22 0 -42 -3
-45 -8z"/>
<path d="M2219 2013 c10 -4 8 -9 -10 -20 l-24 -14 25 7 c14 3 39 12 55 19 l30
13 -45 0 c-25 0 -39 -2 -31 -5z"/>
<path d="M2188 1929 c-19 -11 -25 -39 -8 -39 6 0 10 5 10 11 0 7 8 18 18 25
20 16 5 18 -20 3z"/>
<path d="M2442 1374 c-52 -8 -110 -18 -131 -24 l-38 -10 4 -82 c2 -46 8 -103
13 -128 5 -25 12 -76 15 -115 8 -103 15 -176 21 -213 5 -30 8 -33 27 -27 21 6
87 21 136 30 14 2 47 9 75 15 28 6 62 12 75 15 13 2 45 15 70 28 42 22 49 31
77 100 24 60 30 89 28 134 -6 158 -93 253 -264 287 -8 2 -57 -3 -108 -10z
m118 -24 c3 -1 15 -1 27 -1 11 1 24 -3 28 -8 3 -6 15 -11 26 -11 29 0 85 -45
99 -80 7 -17 17 -30 22 -30 6 0 8 -6 5 -14 -3 -8 1 -20 8 -26 8 -7 12 -17 9
-22 -4 -6 -1 -14 6 -18 11 -7 10 -13 -4 -34 -9 -14 -12 -26 -6 -26 5 0 10 -9
10 -20 0 -11 -6 -20 -12 -20 -9 0 -8 -4 2 -10 12 -8 13 -13 3 -30 -7 -11 -13
-26 -13 -34 0 -8 -9 -21 -20 -29 -11 -8 -17 -16 -14 -20 10 -9 -77 -50 -136
-64 -52 -11 -228 -43 -241 -43 -10 0 -20 57 -25 145 -3 44 -7 86 -9 93 -3 6 2
12 9 12 9 0 17 -31 26 -106 9 -74 18 -108 28 -111 15 -6 196 22 250 39 21 6
47 28 72 62 34 45 40 61 43 112 2 33 6 65 11 72 4 7 1 12 -8 12 -10 0 -13 6
-10 15 4 8 1 15 -5 15 -6 0 -11 8 -11 19 0 10 -7 24 -15 31 -8 7 -15 19 -15
26 0 18 -67 62 -108 70 -18 4 -35 11 -38 15 -3 5 -10 7 -15 4 -5 -4 -15 -3
-21 1 -7 5 -29 7 -48 7 -31 -2 -32 -1 -10 6 21 7 83 7 100 1z m-170 -18 c0 -5
-15 -16 -34 -24 -33 -16 -33 -17 -25 -60 11 -59 11 -58 -8 -58 -15 0 -18 10
-19 65 -2 63 -1 65 25 71 14 3 31 7 36 9 18 6 25 5 25 -3z m191 -38 c24 -9 49
-22 54 -29 6 -6 18 -14 28 -18 10 -4 29 -33 43 -64 22 -49 25 -68 20 -121 -5
-71 -20 -99 -68 -135 -45 -34 -137 -57 -243 -61 -24 -1 -24 -1 -55 329 -5 55
-4 84 4 92 31 32 142 36 217 7z m-234 -172 c2 -39 -1 -52 -9 -50 -14 5 -26 40
-27 81 -1 22 3 28 16 25 12 -2 17 -16 20 -56z"/>
<path d="M1293 1362 c-4 -8 -1 -81 5 -161 17 -210 15 -277 -9 -331 -32 -70
-45 -80 -103 -79 -158 2 -210 33 -245 147 -12 35 -18 75 -15 87 3 12 -1 57 -9
101 -12 69 -15 171 -5 215 2 10 -8 14 -42 14 l-45 0 4 -54 c2 -30 5 -66 6 -80
6 -43 24 -222 29 -281 8 -98 45 -161 122 -206 43 -25 49 -26 163 -22 106 4
124 8 164 31 38 23 49 36 67 85 21 54 22 68 16 262 -7 205 -13 279 -25 281
-44 8 -73 5 -78 -9z m57 -12 c21 -13 26 -160 5 -160 -18 0 -19 11 -2 30 10 12
9 12 -6 1 -9 -8 -21 -11 -25 -7 -4 4 2 14 12 22 12 8 14 14 7 14 -8 0 -11 6
-7 16 3 8 2 12 -4 9 -6 -3 -10 1 -10 10 0 11 5 15 15 11 8 -3 15 -1 15 4 0 6
-10 10 -22 10 -16 0 -19 3 -11 11 6 6 9 18 6 25 -6 16 5 18 27 4z m-465 -76
c4 -36 3 -60 -4 -67 -15 -15 -17 -10 -24 61 -5 49 -4 62 7 62 9 0 16 -19 21
-56z m10 -131 c-3 -13 -1 -23 4 -23 6 0 8 -6 6 -12 -3 -7 -1 -50 3 -96 7 -72
6 -82 -7 -80 -10 2 -17 16 -19 38 -1 19 -4 54 -7 77 -2 23 0 45 6 48 5 4 9 11
9 16 0 6 -4 8 -9 5 -9 -6 -20 43 -13 63 8 23 34 -11 27 -36z m482 -21 c-4 -35
-14 -52 -31 -52 -19 0 -17 52 3 67 25 19 31 16 28 -15z m3 -72 c0 -15 -7 -20
-25 -20 -29 0 -33 15 -7 29 25 15 32 13 32 -9z m4 -52 c-5 -13 -7 -40 -6 -60
2 -30 -1 -38 -15 -39 -17 -1 -17 -2 0 -6 10 -3 16 -10 14 -16 -5 -15 -57 -22
-57 -8 0 6 5 11 11 11 5 0 7 4 4 10 -3 5 -1 18 4 29 8 14 8 21 -2 24 -9 3 -8
12 5 35 15 27 15 30 1 25 -11 -4 -14 -2 -9 5 4 7 18 12 32 12 22 0 24 -3 18
-22z m-464 -91 c0 -7 11 -24 25 -39 13 -14 27 -38 31 -52 4 -17 13 -26 26 -26
17 0 18 -3 8 -15 -18 -22 -28 -19 -67 20 -29 29 -33 38 -23 50 10 12 9 15 -4
15 -17 0 -38 38 -29 53 7 12 33 8 33 -6z m450 -68 c0 -6 -9 -13 -21 -16 -16
-4 -17 -8 -7 -14 22 -14 -5 -31 -37 -23 -28 7 -28 7 -8 23 11 9 18 22 15 29
-2 8 7 12 27 12 17 0 31 -5 31 -11z m-65 -69 c3 -6 -6 -15 -22 -21 -33 -13
-206 -22 -246 -13 -34 7 -30 30 4 28 13 -1 40 -2 59 -3 53 -3 128 3 136 12 11
11 62 9 69 -3z"/>
<path d="M1626 1328 c-15 -50 -24 -152 -19 -200 3 -31 0 -116 -7 -190 -8 -73
-14 -169 -14 -213 l-1 -80 44 0 44 0 13 50 c8 32 13 114 14 225 0 96 4 182 9
189 12 19 36 -9 83 -94 18 -33 37 -67 43 -76 5 -9 20 -35 32 -57 13 -22 27
-44 33 -47 6 -4 17 -23 25 -42 9 -20 24 -43 35 -50 11 -8 20 -20 20 -26 1 -22
66 -82 102 -93 l35 -11 -4 61 c-3 33 1 111 8 171 7 61 13 186 13 280 l-1 169
-34 3 c-55 5 -60 -3 -64 -118 -10 -217 -17 -309 -26 -309 -15 0 -106 129 -141
200 -17 36 -56 108 -85 161 -50 90 -56 97 -91 103 -53 8 -62 8 -66 -6z m78
-34 c22 -9 20 -31 -4 -37 -17 -4 -18 -2 -9 16 9 18 5 16 -20 -7 -23 -23 -31
-26 -31 -13 0 9 10 23 22 31 26 19 22 18 42 10z m406 -57 c0 -24 -25 -67 -40
-67 -8 0 -12 69 -3 83 2 4 13 7 24 7 13 0 19 -7 19 -23z m-370 -1 c0 -7 -21
-23 -47 -34 -51 -22 -69 -21 -37 3 18 13 18 14 -6 9 -24 -5 -25 -5 -5 11 11 9
27 14 36 12 9 -3 23 -1 30 4 20 12 29 11 29 -5z m52 -77 c16 -25 30 -59 31
-77 1 -21 8 -33 21 -36 12 -3 16 -10 13 -20 -4 -9 -2 -16 3 -16 5 0 7 -7 3
-15 -6 -18 -28 -15 -28 4 0 6 -4 15 -10 19 -18 13 -47 73 -42 86 3 8 -1 13
-11 12 -9 0 -18 7 -20 17 -2 11 -13 28 -24 39 -17 17 -18 22 -7 29 24 16 43 5
71 -42z m-110 -4 c4 -17 -2 -31 -18 -46 -25 -24 -27 -22 -24 26 2 27 14 44 31
45 4 0 9 -11 11 -25z m422 13 c-4 -7 -7 -29 -7 -50 1 -45 -31 -84 -43 -53 -5
12 -1 23 11 31 10 8 16 14 12 14 -4 0 -3 10 3 23 11 21 10 21 -4 3 -9 -11 -19
-16 -23 -13 -3 4 4 18 17 32 24 26 47 34 34 13z m-429 -105 c-2 -10 -4 -21 -4
-25 -1 -5 -8 -8 -17 -8 -14 0 -15 2 -3 17 10 11 10 14 2 9 -8 -4 -13 -1 -13 8
0 9 8 16 19 16 13 0 18 -6 16 -17z m431 -48 c-2 -30 -9 -61 -16 -70 -8 -10 -9
-15 -1 -15 6 0 11 -7 11 -15 0 -20 -19 -19 -41 1 -13 12 -16 25 -12 52 3 21
10 43 16 50 5 6 6 12 2 12 -5 0 0 9 10 20 28 31 34 24 31 -35z m-431 -52 c0
-47 -3 -58 -17 -61 -13 -2 -16 1 -12 12 3 9 11 16 17 16 6 0 7 3 4 6 -4 4 -13
1 -22 -6 -12 -10 -15 -10 -15 4 0 9 4 16 9 16 5 0 11 9 14 20 3 11 2 18 -3 15
-10 -6 -21 21 -13 29 4 3 13 6 22 6 13 0 16 -12 16 -57z m223 -1 c2 -12 7 -22
11 -22 5 0 14 -13 20 -28 7 -16 25 -43 40 -59 16 -17 31 -38 34 -47 15 -38 53
7 48 57 -2 21 2 27 17 27 10 0 19 -8 20 -17 7 -75 -6 -129 -33 -139 -25 -10
-28 2 -10 30 18 27 12 33 -15 16 -12 -8 -12 -10 -1 -10 11 0 10 -5 -4 -20 -21
-23 -40 -27 -32 -6 3 8 2 16 -3 18 -5 2 -10 10 -12 17 -2 8 -12 24 -24 35 -31
32 -64 83 -57 89 3 4 -2 9 -11 13 -9 3 -16 12 -16 19 0 7 -6 15 -12 18 -10 3
-10 8 1 21 18 21 35 16 39 -12z m-232 -92 c19 0 18 -26 -1 -34 -8 -3 -15 -10
-15 -16 0 -5 7 -10 15 -10 8 0 15 -4 15 -9 0 -14 -28 -33 -40 -26 -5 3 -10 -1
-10 -11 0 -12 6 -15 21 -11 13 3 19 1 16 -6 -2 -7 -15 -12 -28 -12 -20 0 -25
6 -27 31 -2 18 3 38 11 46 8 8 17 24 21 36 6 17 4 21 -8 16 -9 -3 -16 -2 -16
4 0 13 24 22 28 11 2 -5 10 -9 18 -9z m415 -154 c-14 -16 -71 -19 -71 -3 0 5
9 7 19 4 10 -2 25 -1 32 4 22 14 33 10 20 -5z m-436 -16 c-16 -17 -45 -28 -45
-16 0 20 17 36 38 36 24 0 25 0 7 -20z"/>
<path d="M560 1216 c-9 -9 -275 -68 -304 -68 -24 1 -27 -2 -23 -21 12 -47 37
-168 61 -292 14 -71 30 -144 35 -161 5 -17 12 -60 16 -95 4 -35 9 -77 10 -92
6 -47 22 -59 56 -42 15 8 35 15 44 15 8 0 15 1 15 3 -1 16 -44 198 -59 252
-12 38 -17 73 -13 77 5 5 53 10 108 12 128 6 150 14 156 59 l4 34 -71 -3 c-38
-2 -86 -8 -105 -14 -19 -5 -49 -10 -67 -10 -29 0 -33 4 -42 38 -6 20 -11 48
-11 62 0 14 -4 41 -10 60 -15 52 -27 47 215 86 55 9 102 18 104 19 2 2 -1 21
-6 42 -8 37 -10 38 -59 41 -27 2 -52 1 -54 -2z m25 -46 c-12 -13 -22 -17 -28
-11 -13 13 1 31 25 31 21 0 21 -1 3 -20z m65 5 c0 -8 -9 -15 -20 -15 -20 0
-26 11 -13 23 12 13 33 7 33 -8z m-140 -14 c0 -10 -25 -21 -48 -21 -15 1 -14
3 2 15 22 17 46 20 46 6z m-196 -63 c-1 -10 2 -18 7 -18 17 0 9 -28 -8 -33
-14 -4 -14 -5 3 -6 19 -1 22 -8 26 -71 3 -38 11 -76 17 -84 8 -10 9 -16 1 -21
-10 -6 -7 -65 5 -85 3 -5 -2 -10 -13 -10 -24 0 -35 23 -19 39 8 8 8 11 -1 11
-7 0 -12 10 -12 23 0 13 -3 27 -7 31 -5 4 -8 31 -9 59 0 29 -4 59 -7 67 -9 24
-37 110 -37 116 0 3 12 4 28 2 19 -2 27 -8 26 -20z m304 -240 c-5 -16 -48 -24
-48 -10 0 11 17 20 38 21 8 1 12 -5 10 -11z m-60 -10 c-3 -7 -23 -14 -47 -15
-26 -1 -39 2 -35 8 3 6 15 9 25 6 10 -3 22 -1 25 4 8 14 36 11 32 -3z m-105
-19 c-15 -15 -75 -17 -80 -1 -3 8 9 12 43 12 35 0 45 -3 37 -11z m-76 -89 c8
-13 9 -21 2 -25 -13 -8 -39 13 -39 31 0 21 23 17 37 -6z m23 -65 c5 -14 12
-37 14 -50 3 -14 7 -29 10 -34 12 -20 9 -103 -4 -111 -18 -11 -29 -4 -29 18
-1 49 -8 89 -18 107 -6 11 -14 37 -18 58 -7 33 -5 37 14 37 14 0 25 -9 31 -25z"/>
</g>
</svg>
